<svg width="40" height="40" viewBox="0 0 40 40" fill="none" xmlns="http://www.w3.org/2000/svg">
<path d="M21.6226 8.99999V12.8517H33.0799C35.169 12.8517 36.1156 14.19 36.1156 15.7895C36.1156 17.3237 35.2343 18.8252 33.0473 18.8252H25.1153C22.6998 18.8252 21.6553 19.8371 21.6553 22.3179V31.0332H25.507V23.0686C25.507 22.6769 25.7029 22.5137 26.0619 22.5137H32.9167C38.0741 22.5137 40 18.9231 40 15.5936C40 12.0683 37.8783 8.99999 32.9167 8.99999H21.6226Z" fill="#DB362D"/>
<path d="M9.95577 9.00002C3.55796 9.00002 0 12.6233 0 20.033C0 27.41 3.52532 31.0333 9.95577 31.0333H13.3505C18.2794 31.0333 20.2053 27.9976 20.2053 24.1458C20.2053 20.3267 18.2794 17.9112 14.3624 17.9112H9.07443V21.2734H13.9707C15.766 21.2734 16.68 22.3179 16.68 24.0806C16.68 25.8759 15.766 27.1815 13.6117 27.1815H9.95577C5.67968 27.1815 3.85174 25.0598 3.85174 20.033C3.85174 14.9735 5.71232 12.8518 9.95577 12.8518H19.0302V9.00002H9.95577Z" fill="#DB362D"/>
</svg>
